<svg width="64" height="62" viewBox="0 0 64 62" fill="none" xmlns="http://www.w3.org/2000/svg">
<path d="M52 44.5626L32 44.5626V54.2501C31.9999 54.6332 31.8826 55.0077 31.6628 55.3263C31.443 55.6448 31.1307 55.8931 30.7653 56.0397C30.3999 56.1863 29.9978 56.2247 29.6099 56.15C29.222 56.0752 28.8657 55.8908 28.586 55.6199L4.58599 32.3699C4.21105 32.0066 4.00042 31.5138 4.00042 31.0001C4.00042 30.4863 4.21105 29.9936 4.58599 29.6303L28.586 6.38026C28.8657 6.10938 29.222 5.92492 29.6099 5.8502C29.9978 5.77547 30.3999 5.81384 30.7653 5.96045C31.1307 6.10706 31.443 6.35533 31.6628 6.67387C31.8826 6.99242 31.9999 7.36693 32 7.75008L32 17.4376L52 17.4376C53.0605 17.4386 54.0773 17.8472 54.8273 18.5737C55.5772 19.3002 55.9989 20.2852 56 21.3126L56 40.6876C55.9984 41.7148 55.5765 42.6995 54.8267 43.4259C54.0769 44.1523 53.0604 44.561 52 44.5626V44.5626ZM8.82799 31.0001L28 49.573V40.6876L52 40.6876L52 21.3126L28 21.3126L28 12.4272L8.82799 31.0001Z" fill="#FAFAFA"/>
</svg>
