<svg width="70" height="70" viewBox="0 0 70 70" fill="none" xmlns="http://www.w3.org/2000/svg">
<path d="M70 35C70 54.33 54.33 70 35 70C15.67 70 0 54.33 0 35C0 15.67 15.67 0 35 0C54.33 0 70 15.67 70 35Z" fill="black"/>
<path d="M50.0862 53.1034H19.9138V47.069H50.0862V53.1034ZM36.5991 24.7263L42.2565 30.3836L28.5884 44.0517H22.931V38.3944L36.5991 24.7263ZM43.8707 28.7694L38.2134 23.1121L40.9741 20.3513C41.1137 20.2114 41.2795 20.1005 41.462 20.0248C41.6445 19.9491 41.8401 19.9101 42.0377 19.9101C42.2353 19.9101 42.4309 19.9491 42.6134 20.0248C42.7959 20.1005 42.9617 20.2114 43.1013 20.3513L46.6315 23.8815C47.2198 24.4698 47.2198 25.4203 46.6315 26.0086L43.8707 28.7694Z" fill="#FAFAFA"/>
</svg>
