<svg width="70" height="70" viewBox="0 0 70 70" fill="none" xmlns="http://www.w3.org/2000/svg">
<path d="M70 35C70 54.33 54.33 70 35 70C15.67 70 0 54.33 0 35C0 15.67 15.67 0 35 0C54.33 0 70 15.67 70 35Z" fill="#FFBA0A"/>
<path d="M70 35C70 54.33 54.33 70 35 70C15.67 70 0 54.33 0 35C0 15.67 15.67 0 35 0C54.33 0 70 15.67 70 35Z" fill="#22DF03"/>
<path d="M35.5896 32.6207C30.1103 31.1966 28.3483 29.7241 28.3483 27.431C28.3483 24.8 30.7862 22.9655 34.8655 22.9655C39.1621 22.9655 40.7552 25.0172 40.9 28.0345H46.2345C46.0655 23.8828 43.531 20.069 38.4862 18.8379V13.5517H31.2448V18.7655C26.5621 19.7793 22.7965 22.8207 22.7965 27.4793C22.7965 33.0552 27.4069 35.831 34.1414 37.4483C40.1759 38.8966 41.3828 41.0207 41.3828 43.2655C41.3828 44.931 40.2 47.5862 34.8655 47.5862C29.8931 47.5862 27.9379 45.3655 27.6724 42.5172H22.3621C22.6517 47.8035 26.6103 50.7724 31.2448 51.7621V57H38.4862V51.8103C43.1931 50.9172 46.9345 48.1897 46.9345 43.2414C46.9345 36.3862 41.069 34.0448 35.5896 32.6207Z" fill="#F8F8F8"/>
</svg>
