<svg width="70" height="70" viewBox="0 0 70 70" fill="none" xmlns="http://www.w3.org/2000/svg">
<path d="M70 35C70 54.33 54.33 70 35 70C15.67 70 0 54.33 0 35C0 15.67 15.67 0 35 0C54.33 0 70 15.67 70 35Z" fill="#FF3C3C"/>
<path d="M38.6678 16.8966L38.0455 44.1649H31.9733L31.3699 16.8966H38.6678ZM35.0094 55.9321C33.8654 55.9321 32.8848 55.5298 32.0676 54.7252C31.263 53.9206 30.8607 52.94 30.8607 51.7834C30.8607 50.6519 31.263 49.6839 32.0676 48.8793C32.8848 48.0747 33.8654 47.6724 35.0094 47.6724C36.1283 47.6724 37.0964 48.0747 37.9135 48.8793C38.7433 49.6839 39.1581 50.6519 39.1581 51.7834C39.1581 52.5503 38.9633 53.248 38.5735 53.8766C38.1964 54.5052 37.6935 55.0081 37.0649 55.3852C36.4489 55.7498 35.7637 55.9321 35.0094 55.9321Z" fill="white"/>
</svg>
