<svg width="64" height="64" viewBox="0 0 64 64" fill="none" xmlns="http://www.w3.org/2000/svg">
<path d="M0 12C0 5.37258 5.37258 0 12 0H52C58.6274 0 64 5.37258 64 12V52C64 58.6274 58.6274 64 52 64H12C5.37258 64 0 58.6274 0 52V12Z" fill="#161616"/>
<path d="M48.6667 49H15.3333V42.8333H48.6667V49ZM33.7667 20.0012L40.0167 25.7825L24.9167 39.75H18.6667V33.9687L33.7667 20.0012ZM41.8 24.1329L35.55 18.3517L38.6 15.5304C38.7542 15.3875 38.9373 15.2741 39.139 15.1967C39.3406 15.1194 39.5567 15.0796 39.775 15.0796C39.9933 15.0796 40.2094 15.1194 40.411 15.1967C40.6127 15.2741 40.7958 15.3875 40.95 15.5304L44.85 19.1379C45.5 19.7392 45.5 20.7104 44.85 21.3117L41.8 24.1329Z" fill="#FAFAFA"/>
</svg>
