<svg width="70" height="70" viewBox="0 0 70 70" fill="none" xmlns="http://www.w3.org/2000/svg">
<circle cx="35" cy="35" r="35" fill="#FFBA0A"/>
<path d="M16.1429 34.8571H35V38H16.1429V34.8571ZM13 27H28.7143V30.1429H13V27Z" fill="#F8F8F8"/>
<path d="M56.8737 35.8716L52.1965 24.7363C52.0765 24.4501 51.8767 24.2061 51.622 24.0347C51.3673 23.8634 51.0688 23.7721 50.7637 23.7723H46.0865V20.5908C46.0865 20.1689 45.9223 19.7642 45.6299 19.4659C45.3375 19.1676 44.941 19 44.5275 19H19.5824V22.1815H42.9684V42.155C42.258 42.5759 41.6363 43.1362 41.1391 43.8035C40.6419 44.4707 40.2791 45.2318 40.0717 46.0428H30.2745C29.895 44.5433 28.9926 43.2364 27.7363 42.3672C26.4801 41.498 24.9562 41.1261 23.4505 41.3213C21.9447 41.5164 20.5604 42.2652 19.557 43.4273C18.5536 44.5893 18 46.0849 18 47.6336C18 49.1823 18.5536 50.6779 19.557 51.8399C20.5604 53.002 21.9447 53.7508 23.4505 53.9459C24.9562 54.141 26.4801 53.7692 27.7363 52.9C28.9926 52.0307 29.895 50.7239 30.2745 49.2244H40.0717C40.4108 50.5896 41.1864 51.8005 42.2758 52.6654C43.3652 53.5304 44.7062 54 46.0865 54C47.4669 54 48.8079 53.5304 49.8972 52.6654C50.9866 51.8005 51.7623 50.5896 52.1014 49.2244H55.4409C55.8544 49.2244 56.251 49.0568 56.5434 48.7584C56.8357 48.4601 57 48.0555 57 47.6336V36.4983C57.0001 36.2828 56.9571 36.0695 56.8737 35.8716V35.8716ZM24.2596 50.8151C23.6429 50.8151 23.0401 50.6285 22.5273 50.2789C22.0145 49.9293 21.6148 49.4325 21.3788 48.8511C21.1428 48.2698 21.0811 47.6301 21.2014 47.0129C21.3217 46.3958 21.6187 45.8289 22.0548 45.3839C22.4908 44.939 23.0464 44.636 23.6513 44.5132C24.2562 44.3905 24.8831 44.4535 25.4529 44.6943C26.0226 44.9351 26.5096 45.3428 26.8523 45.866C27.1949 46.3892 27.3778 47.0044 27.3778 47.6336C27.3769 48.4771 27.0481 49.2859 26.4636 49.8823C25.879 50.4788 25.0863 50.8143 24.2596 50.8151V50.8151ZM46.0865 26.9538H49.7348L53.0774 34.9076H46.0865V26.9538ZM46.0865 50.8151C45.4698 50.8151 44.867 50.6285 44.3542 50.2789C43.8414 49.9293 43.4418 49.4325 43.2058 48.8511C42.9698 48.2698 42.908 47.6301 43.0283 47.0129C43.1486 46.3958 43.4456 45.8289 43.8817 45.3839C44.3178 44.939 44.8734 44.636 45.4782 44.5132C46.0831 44.3905 46.71 44.4535 47.2798 44.6943C47.8496 44.9351 48.3365 45.3428 48.6792 45.866C49.0218 46.3892 49.2047 47.0044 49.2047 47.6336C49.2038 48.4771 48.8751 49.2859 48.2905 49.8823C47.7059 50.4788 46.9133 50.8143 46.0865 50.8151ZM53.8819 46.0428H52.1014C51.758 44.6803 50.9811 43.4725 49.8926 42.6088C48.8041 41.7452 47.4654 41.2745 46.0865 41.2706V38.0891H53.8819V46.0428Z" fill="#F8F8F8"/>
</svg>
