<svg width="70" height="70" viewBox="0 0 70 70" fill="none" xmlns="http://www.w3.org/2000/svg">
<circle cx="35" cy="35" r="35" fill="#FFBA0A"/>
<path d="M20.6513 38.0842V23.0651C20.6513 22.0693 21.0469 21.1142 21.751 20.4101C22.4552 19.7059 23.4102 19.3103 24.4061 19.3103H46.9348C47.9306 19.3103 48.8857 19.7059 49.5898 20.4101C50.294 21.1142 50.6896 22.0693 50.6896 23.0651V47.4712C50.6896 49.3486 49.5631 53.1034 45.0574 53.1034M28.1609 26.8199H43.18M28.1609 34.3295H35.6704M45.0574 53.1034H22.5287C20.6513 53.1034 16.8965 51.977 16.8965 47.4712V43.7164H39.4252V47.4712C39.4252 51.977 43.18 53.1034 45.0574 53.1034Z" stroke="#FAFAFA" stroke-width="3" stroke-linecap="round" stroke-linejoin="round"/>
</svg>
