<svg width="70" height="70" viewBox="0 0 70 70" fill="none" xmlns="http://www.w3.org/2000/svg">
<path d="M70 35C70 54.33 54.33 70 35 70C15.67 70 0 54.33 0 35C0 15.67 15.67 0 35 0C54.33 0 70 15.67 70 35Z" fill="#FFBA0A"/>
<path d="M35 23.8966C39.2966 23.8966 40.8897 25.9483 41.0345 28.9655H46.369C46.2 24.8138 43.6655 21 38.6207 19.769V14.4828H31.3793V19.6966C30.4379 19.8897 29.569 20.2034 28.7241 20.5655L32.369 24.2103C33.1414 24.0172 34.0345 23.8966 35 23.8966ZM18.031 16.7034L14.6276 20.1069L22.931 28.4103C22.931 33.431 26.6966 36.1828 32.369 37.8483L40.8414 46.3207C40.0207 47.5034 38.3069 48.5172 35 48.5172C30.0276 48.5172 28.0724 46.2966 27.8069 43.4483H22.4966C22.7862 48.7345 26.7448 51.7034 31.3793 52.6931V57.931H38.6207V52.7414C40.9379 52.3069 43.0379 51.4138 44.5586 50.0379L49.9172 55.3966L53.3207 51.9931L18.031 16.7034Z" fill="#F8F8F8"/>
<path d="M70 35C70 54.33 54.33 70 35 70C15.67 70 0 54.33 0 35C0 15.67 15.67 0 35 0C54.33 0 70 15.67 70 35Z" fill="#FFBA0A"/>
<path d="M35 23.8966C39.2966 23.8966 40.8897 25.9483 41.0345 28.9655H46.369C46.2 24.8138 43.6655 21 38.6207 19.769V14.4828H31.3793V19.6966C30.4379 19.8897 29.569 20.2034 28.7241 20.5655L32.369 24.2103C33.1414 24.0172 34.0345 23.8966 35 23.8966ZM18.031 16.7034L14.6276 20.1069L22.931 28.4103C22.931 33.431 26.6966 36.1828 32.369 37.8483L40.8414 46.3207C40.0207 47.5034 38.3069 48.5172 35 48.5172C30.0276 48.5172 28.0724 46.2966 27.8069 43.4483H22.4966C22.7862 48.7345 26.7448 51.7034 31.3793 52.6931V57.931H38.6207V52.7414C40.9379 52.3069 43.0379 51.4138 44.5586 50.0379L49.9172 55.3966L53.3207 51.9931L18.031 16.7034Z" fill="#F8F8F8"/>
</svg>
